Patient4_TMGait_0pt2_02_right_08_EMG.mot
version=1
nRows=36
nColumns=33
inDegrees=no
endheader
time	1LAddLong	2LGlutMax	3LGlutMed	4LIliopsoas	5LSemiMemb	6LBicFemLong	7LRecFem	8LVastMed	9LVastLat	10LGasMed	11LTibAnt	12lTibPost	13LPeroneusLong	14LSol	15LExtDigLong	16LFlexDigLong	17RAddLong	18RGlutMax	19RGlutMed	20RIliopsoas	21RSemiMemb	22RBicFemLong	23RRecFem	24RVastMed	25RVastLat	26RGasMed	27RTibAnt	28RTibPost	29RPeroneusLong	30RSol	31RExtDigLong	32RFlexDigLong
19.293	0.007782	0.005341	-0.039825	0.009613	0.015564	0.02594	-0.051117	0.012665	-0.00946	0.011139	0.007935	0.017242	0.10376	0.00351	0.055084	0.000305	0.039368	0.049744	-0.35126	0.048523	0.044708	0.046692	-0.10147	-0.061493	0.035553	-0.002441	0.91507	-0.005646	-0.13107	-0.16953	-0.001678	0.010071
19.294	-0.015411	-0.040741	-0.035248	0.012512	0.045929	0.098724	-0.087891	0.018616	0.051422	0.019836	0.001373	0.020294	-0.023041	0.016479	0.024719	0.003052	0.023651	-0.049896	-0.62546	0.022278	0.062408	0.033112	-0.14938	-0.032806	0.046692	0.00351	-0.65247	-0.002136	0.050964	-0.21393	-0.002441	0.00412
19.295	-0.027313	-0.03952	-0.025024	0.016785	0.051575	0.15778	-0.14587	0.018616	0.091553	0.001221	0.007172	0.00824	0.13321	0.031738	0.000763	0.007172	0.021057	-0.08667	-0.20981	0.00412	0.06897	0.033569	-0.18036	-0.040131	0.048523	0.006714	-0.84991	-0.00351	-0.002441	-0.25574	-0.004272	-0.00412
19.296	-0.014343	0.027008	0.098877	0.019684	0.030365	0.015869	-0.15121	0.038147	0.16495	-0.046539	-0.003662	0.018616	0.21439	0.055542	-0.007019	0.010071	0.016785	0.02121	0.44586	-0.037689	0.058899	0.023041	-0.12558	-0.028839	0.016785	0.005798	-0.58914	-0.003357	0.072021	-0.2803	0.005951	-0.016785
19.297	-0.026398	0.015869	0.27466	0.018311	0.005951	-0.15793	-0.092468	0.01297	0.29709	-0.051117	0.005798	0.010986	-0.26535	0.03006	0.001526	0.006104	0.002747	-0.002136	1.0837	-0.038605	0.037079	0.021515	-0.10941	-0.028839	0.034943	0.002747	-0.93597	-0.002899	0.2211	-0.20401	-0.006256	-0.014648
19.298	-0.009613	-0.043335	0.18066	0.016022	-0.024109	-0.055084	-0.067902	-0.011597	0.31418	-0.032349	0.014801	0.009613	0.4425	0.000763	0.062714	0.027161	-0.010223	-0.031891	0.54336	-0.046082	0.032349	0.001373	-0.12528	-0.001068	0.015564	0.003204	-0.19531	-0.012512	0.1709	-0.12299	-0.002441	-0.012817
19.299	-0.00473	-0.026093	0.16083	-0.010376	-0.026855	0.035553	-0.027161	-0.020599	0.30991	-0.065918	0.002747	0.018616	0.32303	-0.008392	-0.014648	0.010223	-0.013123	0.010223	0.17517	-0.052185	0.025635	-0.002136	-0.092773	-0.001221	0.009308	-0.003052	-0.041504	-0.013123	0.075226	-0.030975	-0.000305	-0.007629
19.3	0.008545	0.011902	0.10712	0.005341	-0.045624	0.098877	0.009155	0.004272	0.26977	-0.0914	-0.007019	0.012817	-0.24597	0.052032	-0.032654	0.019073	-0.00946	0.041351	0.28336	-0.06134	0.024567	-0.001373	-0.10437	0.000763	-0.000916	-0.001373	-0.10956	-0.016937	-0.040436	-0.003204	-0.002747	-0.013275
19.301	0.020905	-0.015411	-0.10757	0.002594	-0.035706	0.10132	0.10819	0.015259	0.13458	-0.097504	-0.008392	0.023193	0.11261	0.11215	-0.0177	0.034943	0.002289	0.005951	0.075836	0.014648	0.015411	-0.013885	-0.10101	-0.031586	0.001678	0.002441	-0.059967	-0.019684	-0.018311	-0.045319	-0.002441	-0.002747
19.302	0.006104	-0.000305	-0.13489	0.001984	0.06073	0.10422	0.12085	-0.008545	-0.1767	-0.015564	-0.01358	0.015869	0.042572	0.13397	-0.012665	0.02594	0.011902	0.024109	0.18662	0.14404	0.00473	-0.025787	-0.12146	-0.045471	-0.000305	-0.002441	-0.36179	-0.016174	0.007782	-0.007629	-0.003662	-0.006561
19.303	0.000305	0.006561	-0.040283	-0.028381	0.09079	0.074463	0.14343	-0.02533	-0.47531	0.068817	0.00412	0.009308	-0.23438	0.094452	0.023804	0.023041	-0.01236	0.078583	0.022583	0.14664	0.010071	-0.009003	-0.11566	-0.048065	0.013733	-0.005493	-0.44876	-0.018005	0.045776	0.12497	-0.000305	-0.008545
19.304	-0.004578	-0.010681	0.041656	0.009766	0.052185	-0.13748	0.094757	-0.005341	-0.57342	0.098114	0.003815	0.021057	-0.094452	0.002441	0.083313	0.003204	-0.013428	0.031586	0.010071	0.20371	0.003052	-0.028381	-0.056458	-0.084686	0.000763	-0.007782	-0.31647	-0.018463	0.082092	0.1857	-0.002899	0.014191
19.305	0.009308	-0.095062	-0.048523	0.006256	0.036926	-0.18372	0.059052	0.001526	-0.39612	0.121	0.024109	0.022125	0.069885	-0.16235	0.080872	0.009613	-0.033569	-0.030975	-0.047913	0.2066	0.009308	-0.011444	-0.019531	-0.096588	-0.019073	-0.009308	-0.12344	-0.022278	0.026398	0.15717	-0.001526	0.014191
19.306	0.016022	-0.13641	-0.15732	0.002899	0.019073	-0.25101	0.10452	0.006409	-0.17181	0.11063	0.00412	0.013123	0.1506	-0.15259	0.018463	0.009918	-0.027618	0.001526	0.087433	0.13779	0.00885	-0.030518	-0.024719	-0.074158	-0.007019	-0.006866	0.043945	-0.021515	-0.035858	0.033875	-0.002441	0.0177
19.307	-0.001526	-0.16235	-0.18524	0.016327	0.015411	-0.16968	0.1593	0.024872	-0.072784	0.098877	-0.025482	0.024872	0.061188	-0.17975	-0.075531	0.015106	-0.000153	0.011749	0.16037	0.077362	0.011749	-0.008698	-0.06073	-0.083923	0.002441	0.001221	0.36713	-0.019684	0.029602	-0.036163	-0.002594	0.019379
19.308	0.002441	-0.12863	-0.071716	0.005188	0.016479	-0.13687	0.13107	0.026398	-0.052185	0.050049	-0.032501	0.017548	-0.11383	-0.1474	-0.081024	0.013123	0.054932	-0.056152	-0.021667	-0.00351	0.020142	-0.021667	-0.055847	-0.097504	0.012054	0.00061	0.057678	-0.014496	0.035706	-0.050201	0.000763	0.013123
19.309	0.02182	-0.12253	-0.06958	-0.009766	0.021515	-0.10162	0.097351	0.019073	-0.060577	0.018616	-0.022736	0.028381	0.029602	0.051117	-0.017395	0.016785	0.070496	-0.039063	0.027161	-0.11444	0.01236	-0.010681	-0.10681	-0.063019	0.019073	0.000763	0.26627	-0.019073	0.039978	-0.095673	0.000763	0.010223
19.31	0.031738	-0.040436	-0.15976	-0.000916	0.00946	-0.057678	0.001068	0.014648	-0.061493	-0.032043	-0.050507	0.023651	0.2626	0.1918	0.039978	-0.001221	0.059357	-0.057831	-0.073853	-0.093536	0.012054	-0.043945	-0.085297	-0.06134	0.020142	-0.001221	0.000305	-0.012665	0.13123	-0.13489	0.002136	0.007629
19.311	0.009155	-0.038605	-0.10025	0.004425	-0.025482	0.10147	-0.04364	0.003204	-0.068359	-0.033264	-0.04837	0.024872	-0.07309	0.17761	0.049438	0.012665	0.052643	-0.0914	-0.22064	0.023346	-0.003052	-0.01358	-0.083923	-0.040283	0.021973	-0.007782	-0.43167	-0.013275	0.19028	-0.093689	0	-0.003357
19.312	-0.006256	-0.10757	0.12451	0.004272	-0.046997	0.12848	-0.041046	0.011902	-0.041351	-0.016479	-0.021057	0.022736	-0.065002	0.12817	0.007935	0.012512	0.046234	-0.089722	0.062408	0.036316	-0.002441	0.000153	-0.084686	-0.066223	0.006409	-0.011139	-0.65277	-0.016479	0.12695	0.10147	0.000305	0.005951
19.313	-0.009308	-0.065308	0.18875	0.005951	-0.035095	0.053253	0.010529	-0.006866	0.11917	-0.014191	0.024872	0.008545	-0.063782	0.054779	0.22736	0.010223	0.029602	-0.086975	-0.10162	-0.027924	-0.010071	0.008087	-0.059814	-0.075073	0.029907	-0.004272	-0.69153	-0.014954	-0.41122	0.14389	0.001221	0.002441
19.314	-0.003815	-0.09079	0.1181	0.018616	0.039673	-0.027618	-0.021515	-0.02533	0.26321	-0.009918	-0.059662	0.028229	-0.021362	0.058136	0.20966	0.01297	0.018158	-0.06546	0.5925	-0.056152	0.005951	0.008545	-0.075073	-0.039825	0.022736	0.005798	-0.29709	-0.014191	-0.22812	-0.071869	-0.004272	-0.001526
19.315	-0.004578	-0.039215	0.15778	0.011597	0.063934	-0.095825	-0.023041	-0.015717	0.30304	-0.018921	-0.17273	0.018005	0.089417	0.030823	-0.10346	0.004425	0.010376	-0.12421	0.62393	-0.028839	0.006104	0.009766	-0.099487	0.022736	0.020752	0.011139	0.44006	-0.010376	0.046844	-0.093842	-0.000916	-0.000153
19.316	-0.003204	0.034027	0.064697	0.006561	0.028687	-0.14099	0.055389	-0.026093	0.15656	-0.022583	-0.042114	0.011444	0.10574	0.08728	0.048676	0.022278	-0.005798	-0.16907	0.23361	-0.062256	0.034027	0.015564	-0.072021	0.006561	0.041199	-0.002136	0.44037	-0.009308	0.078583	0.001526	0.001984	-0.002899
19.317	0.002289	0.051117	0.053406	-0.007477	0.048981	-0.15228	0.02655	-0.001068	0.093231	-0.00473	0.12375	0.020752	-0.024414	0.12451	-0.26306	-0.010071	-0.002136	-0.11261	0.19745	-0.073242	0.071106	0.020447	-0.06546	0.009308	0.028992	-0.014496	0.36362	-0.009918	-0.050354	0.068512	0.004578	-0.011902
19.318	0.012817	0.011597	0.18387	0.025177	0.056458	0.07309	0.009308	0.013885	0.029144	0.019073	0.054016	0.018463	0.051117	0.073547	-0.32349	-0.011292	-0.003052	-0.14557	0.1918	-0.13092	0.059967	0.002899	-0.033875	0.015411	0.036163	-0.007324	0.26901	-0.011749	0.010834	0.024719	-0.001984	-0.013428
19.319	0.024261	0.00946	0.17105	0.009003	0.046539	0.08667	0.017853	0.007477	-0.046844	-0.005188	-0.027771	0.016327	0.59143	0.000458	-0.25833	0.002441	-0.017853	-0.095978	0.11932	-0.18738	0.040436	-0.009918	-0.030212	0.005035	0.023346	0.000763	0.0914	-0.012512	-0.016327	0.016327	-0.000458	-0.00473
19.32	0.016785	-0.036163	0.21271	0.010681	0.076141	0.12405	0.065155	-0.006866	-0.042114	-0.029144	0.027466	0.014496	0.45715	-0.015259	-0.066681	-0.003357	-0.013428	-0.12085	0.052795	-0.1619	0.013123	-0.01709	0.036316	-0.059967	0.025635	-0.010071	0.2179	-0.01236	-0.093994	0.083618	0.003204	-0.011902
19.321	0.009918	-0.031891	0.13519	0.014801	0.019531	0.12955	0.12787	-0.009766	-0.010071	-0.013733	0.093536	0.008698	-0.39917	0.003052	0.088043	0.010071	-0.034027	-0.071869	-0.000458	-0.010681	0.017395	-0.023346	0.039673	-0.034027	0.011902	-0.011444	0.48294	-0.00946	-0.11215	0.067749	0.000153	-0.015259
19.322	0.006866	-0.081329	0.030212	0.003052	0.032349	0.076294	0.13534	-0.007629	0.004272	0.00824	0.095367	0.018616	-0.19012	-0.083618	0.052795	-0.003967	-0.018921	-0.094757	0.037689	-0.046692	0.024719	-0.013428	0.048218	-0.051575	0.010986	-0.008392	0.54901	-0.010223	-0.15656	0.079346	-0.001068	-0.003815
19.323	0.03418	-0.15915	0.001221	-0.005798	0.032959	-0.08255	0.088959	-0.001221	0.011749	0.012817	0.056	0.009003	0.15656	-0.17761	-0.096741	-0.001831	-0.019531	-0.10391	0.27359	-0.035858	0.033722	-0.014801	-0.003357	-0.070496	0.002899	-0.012512	0.28061	-0.013275	-0.19287	-0.002747	-0.002136	0.000153
19.324	0.02533	-0.23514	-0.19669	0.006866	0.042877	0.007019	0.084991	0.000763	0.058746	-0.024261	0.080414	0.018921	-0.1329	-0.056915	-0.021515	0.00946	-0.020142	-0.047913	0.68207	0.058594	0.049744	-0.013885	0.00351	-0.078583	0.031891	-0.007935	0.04303	-0.003052	-0.17456	0.011444	0.001984	0.001984
19.325	0.028839	-0.23041	-0.11948	0.000458	0.022583	0.11505	0.10132	0.012054	0.027924	-0.013885	0.042419	0.016479	-0.26916	0.024109	-0.012817	0.001678	-0.019226	0.016785	0.29968	0.065918	0.034485	-0.002899	-0.029755	-0.04303	0.016022	0.003357	-0.010071	-0.002441	-0.050201	-0.013428	0.000305	0.012665
19.326	0.024719	-0.23392	0.00946	-0.006866	-0.00885	0.15564	0.040131	-0.002289	0.033417	0.008392	0.005493	0.011444	0.000916	0.010223	-0.018921	0.001526	-0.001373	0.092468	-0.39459	-0.019073	0.021515	0.0177	-0.017242	-0.008087	0.005951	-0.000458	0.20401	-0.007019	-0.060272	-0.047302	0.000763	0.008545
19.327	0.023651	-0.27512	-0.029755	-0.013733	-0.065613	0.1561	0.011749	-0.00061	0.062408	0.009766	-0.002899	0.011292	-0.3241	-0.082397	0.012665	-0.002136	0.007019	0.091858	-0.34546	-0.033722	0.001678	0.014496	-0.022125	-0.03891	0.017242	-0.007172	0.47699	-0.003204	-0.089111	-0.036774	0.001831	0.004883
19.328	0.022125	-0.26703	-0.075378	-0.007935	-0.095215	0.063782	0.010834	-0.003967	-0.11612	-0.006409	-0.020142	0.013123	0.2095	-0.070038	0.03418	0.005646	-0.005798	0.098572	-0.35446	0.19226	0.014038	0.018311	-0.031891	-0.060272	0.023956	-0.002136	0.42602	-0.007629	-0.040588	0.004425	-0.002899	0.006409
